<?xml version="1.0" encoding="UTF-8" standalone="no"?>
<!-- Created with Inkscape (http://www.inkscape.org/) -->

<svg
   width="195.29832"
   height="138.90323"
   viewBox="0 0 195.29832 138.90323"
   version="1.1"
   id="svg1"
   xml:space="preserve"
   inkscape:version="1.3.2 (091e20e, 2023-11-25, custom)"
   sodipodi:docname="minawan-cleaned-v3.svg"
   xmlns:inkscape="http://www.inkscape.org/namespaces/inkscape"
   xmlns:sodipodi="http://sodipodi.sourceforge.net/DTD/sodipodi-0.dtd"
   xmlns="http://www.w3.org/2000/svg"
   xmlns:svg="http://www.w3.org/2000/svg"><sodipodi:namedview
     id="namedview1"
     pagecolor="#ffffff"
     bordercolor="#000000"
     borderopacity="0.25"
     inkscape:showpageshadow="2"
     inkscape:pageopacity="0.0"
     inkscape:pagecheckerboard="0"
     inkscape:deskcolor="#d1d1d1"
     inkscape:document-units="px"
     inkscape:zoom="5.65685425396952"
     inkscape:cx="69.11968780627997"
     inkscape:cy="46.40388247864064"
     inkscape:window-width="2560"
     inkscape:window-height="1369"
     inkscape:window-x="-8"
     inkscape:window-y="446"
     inkscape:window-maximized="1"
     inkscape:current-layer="layer3" /><defs
     id="defs1" /><g
     inkscape:groupmode="layer"
     id="layer4"
     inkscape:label="Fills"
     style="display:inline"
     transform="translate(-148.61128,-552.31175)"><path
       id="path34"
       style="display:inline;fill:#bea3d0;fill-opacity:1;stroke:none;stroke-width:2;stroke-linecap:round;stroke-linejoin:round;stroke-dasharray:none;stroke-opacity:1"
       inkscape:label="body full fill"
       d="m 190.82271,621.95009 c -2.04992,3.20714 -10.13218,15.63558 -11.4612,21.23071 -1.85251,7.79903 -2.84763,27.95578 -2.66441,32.22672 0.1799,4.19348 3.31609,8.15184 5.34996,9.09284 2.77644,1.28454 6.76677,1.18417 8.98712,0.16916 1.82368,-0.83368 2.21728,-1.15782 2.79129,-2.66441 0.50779,-1.33277 0.22026,-3.73833 0.71896,-4.22923 0.45704,-0.44989 7.95119,-0.33861 8.28929,-0.0423 0.6351,0.5566 0.53768,5.22326 1.43793,7.02052 0.73774,1.47283 2.62213,2.28378 4.3984,2.03003 1.77628,-0.25375 3.45782,-1.37386 4.14464,-3.08734 0.76876,-1.9179 0.15508,-5.39962 1.19958,-6.04054 1.38258,-0.84838 31.67124,-0.69077 33.31091,-0.0495 1.16624,0.45608 3.76057,1.52545 4.73674,3.89088 0.47968,1.16235 0.41298,3.71764 1.18418,5.62488 0.72985,1.805 2.95314,2.64677 4.2732,2.84853 2.31076,0.3532 6.929,0.41045 8.70239,-0.43319 1.49816,-0.71271 2.99382,-2.09076 3.38895,-3.87549 0.38035,-1.71794 -0.3882,-6.81422 1.43838,-7.75957 1.90642,-0.98667 32.31942,-0.98216 33.70906,-0.21146 1.34691,0.74701 1.92808,6.62078 3.3411,8.58533 1.18088,1.64179 5.6257,1.99308 8.33157,1.56481 2.93931,-0.46521 5.51914,-1.71284 6.11123,-3.23536 0.59209,-1.52252 0.32768,-18.53295 1.3745,-22.22458 1.03136,-3.63716 4.20324,-12.6826 4.65214,-14.50625 0.93767,-4.48931 1.51385,-8.96543 1.58422,-13.64685 4.66621,-0.60767 5.50256,-5.98105 8.01459,-10.28739 2.20719,-3.78376 4.00729,-12.08168 4.66521,-20.21588 0.33877,-4.1884 -0.5771,-27.12605 -1.55507,-31.10136 -1.26827,-5.15537 -10.22757,-10.04813 -14.41429,-11.6032 -4.18672,-1.55506 -11.78275,-2.68952 -18.48138,-3.11013 -7.35772,-0.46199 -19.80048,-3.46294 -23.20639,-3.82786 -6.69876,-0.71773 -19.6787,-1.17905 -28.82857,-0.23925 -8.0995,0.83192 -15.84972,1.55507 -21.23266,1.91394 -4.92115,0.32808 -13.27423,-0.70523 -20.21587,1.31582 -6.32608,1.84183 -16.12313,8.35501 -18.5412,14.35447 -1.88703,4.68193 -0.0521,23.58071 0.71772,29.18743 0.40808,2.97218 2.46906,9.20587 3.02043,11.39386 0,0 -6.65053,5.83886 -9.27265,9.94121 z"
       sodipodi:nodetypes="ssssssssssssssssssssssssccssssssssssscs"
       sodipodi:insensitive="true" /><path
       d="m 267.72266,553.31641 c -3.9752,0.0187 -7.94381,0.17492 -11.375,0.52734 -8.0995,0.83192 -15.84949,1.55519 -21.23243,1.91406 -4.92114,0.32808 -13.27516,-0.70659 -20.21679,1.31446 -2.77052,0.80663 -6.19222,2.53813 -9.38282,4.70117 -1.67524,12.22486 -2.277,24.64234 -2.14648,36.96093 1.46008,23.0837 11.08157,26.20768 11.98798,32.14086 0.50278,3.29106 -9.05905,9.01719 -3.39312,18.09341 4.40519,7.05665 22.38962,15.02411 32.53995,17.25792 13.38221,2.94506 38.31525,1.39514 45.75586,0.29883 6.82346,-1.00539 18.52252,-7.25648 22.42773,-10.28711 3.21376,-2.49403 3.23124,-7.77534 3.76953,-10.4668 0.53829,-2.69146 1.24233,-11.38364 4.35362,-15.60051 3.1113,-4.21688 11.49519,-13.21951 13.70885,-22.85649 1.72819,-9.88676 0.18399,-38.07348 -0.7207,-42.73242 -2.53897,-1.62288 -5.162,-2.9018 -6.93555,-3.56055 -4.18671,-1.55505 -11.78184,-2.69071 -18.48047,-3.11132 -7.35771,-0.46199 -19.80112,-3.46321 -23.20703,-3.82813 -4.18672,-0.44858 -10.8278,-0.79683 -17.45312,-0.76562 z"
       style="display:inline;opacity:1;fill:#cab5d6;fill-opacity:1;stroke:none;stroke-width:0.25;stroke-linecap:round;stroke-linejoin:round"
       id="path8"
       sodipodi:nodetypes="ssssccsssssszscsssss"
       inkscape:label="body top fill"
       sodipodi:insensitive="true" /><path
       d="m 165.36328,597.84375 c -2.414,0.002 -4.63576,11.27546 -4.27148,16.07031 0.32469,4.27368 4.14453,11.88477 4.14453,11.88477 0,0 -4.38013,-0.67164 -6.42969,0.29687 -1.57335,0.74348 -0.34406,5.50164 0.93164,7.27344 3.8063,5.28654 9.33187,8.30744 12.22266,9.05078 2.96045,0.76126 7.40039,0.76172 7.40039,0.76172 1.32902,-5.59512 9.41102,-18.02528 11.46094,-21.23242 -3.5811,-1.13087 -12.88574,-3.933 -17.63477,-10.31836 -3.58503,-4.82029 -4.90779,-13.78924 -7.82422,-13.78711 z"
       style="display:inline;fill:#bea3d0;fill-opacity:1;stroke:none;stroke-width:2;stroke-linecap:round;stroke-linejoin:round;stroke-dasharray:none;stroke-opacity:1"
       id="path32"
       inkscape:label="tail full fill"
       sodipodi:insensitive="true" /><path
       id="path25"
       style="display:inline;fill:#cab5d6;fill-opacity:1;stroke:none;stroke-width:0.25;stroke-linecap:round;stroke-linejoin:round;stroke-dasharray:none;stroke-opacity:1"
       inkscape:label="tail top fill"
       d="m 163.50612,599.94086 c 0.57344,-1.28184 1.20836,-2.09657 1.85716,-2.09711 v 0 c 2.91643,-0.002 4.23919,8.96682 7.82422,13.78711 4.74903,6.38535 14.05367,9.18749 17.63477,10.31836 -1.22059,1.90964 -4.57982,7.08924 -7.37694,12.14573 -14.86139,-7.76194 -20.12878,-15.77087 -19.93921,-34.15409 z"
       sodipodi:nodetypes="csssccc"
       sodipodi:insensitive="true" /></g><g
     inkscape:groupmode="layer"
     id="layer3"
     inkscape:label="Body outlines"
     transform="translate(-148.61128,-552.31175)"
     inkscape:highlight-color="#5648eb"
     style="display:inline"><path
       style="display:inline;fill:none;stroke:#404040;stroke-width:1.2;stroke-linecap:round;stroke-linejoin:round;stroke-dasharray:none;stroke-opacity:1"
       d="m 178.44989,648.40268 c -2.85137,3.6277699999998 -11.36654,4.89792 -12.05404,3.27292 -0.6875,-1.625 2.02903,-2.6174200000003 2.02903,-2.6174200000003 0,0 -10.50545,0.8101300000002 -16.9532,-3.7228099999998 -3.43455,-2.41458 -2.60144,-6.25149 0.13503,-7.1323800000002 1.23618,-0.3979299999997 7.94097,-1.07519 11.37457,-1.1679899999999"
       id="path7"
       sodipodi:nodetypes="cscssc"
       inkscape:label="tail wag lower"
       sodipodi:insensitive="true" /><path
       style="display:inline;fill:none;stroke:#404040;stroke-width:1.2;stroke-linecap:round;stroke-linejoin:round;stroke-dasharray:none;stroke-opacity:1"
       d="M 186.83647,614.22197 C 184.84774,612.4984 183.80994,609.40552 183.43353,607.37188 182.8063,603.9831199999999 183.91389,591.96942 180.9555,591.69432 179.25615,591.5363 177.25399,595.43868 176.84859,598.22369 c -0.2831,1.94484 -1.68218,2.7364699999999 -3.28791,1.53549 -1.81694,-1.3589500000002 -3.16795,2.84986 -3.421,5.97402"
       id="path10-4"
       sodipodi:nodetypes="cssssc"
       inkscape:label="tail wag upper"
       sodipodi:insensitive="true" /><path
       style="display:inline;fill:none;stroke:#000000;stroke-width:2;stroke-linecap:round;stroke-linejoin:round;stroke-dasharray:none;stroke-opacity:1"
       d="m 241.75323,584.0475699999999 c -1.32552,1.65933 -3.18431,4.49569 -4.0671,7.95476 -0.88279,3.45907 -1.1364,9.2107999999998 -2.03355,12.0816899999996 -0.73556,2.3537899999999 -5.38293,13.6367400000004 -5.98103,15.0721900000001 -0.5981,1.4354500000002 -2.75128,8.1342000000002 -6.45952,10.4069900000002 -3.70823,2.2727999999996 -10.42018,1.4450399999997 -13.03864,-0.1196200000002 -2.35957,-1.4099599999998 -6.39587,-5.6496999999999 -7.71553,-8.6126799999998 -1.29536,-2.9084300000001 -1.86373,-6.84273 -2.3625,-8.8220200000001 -0.55137,-2.1879899999999 -2.61235,-8.4216799999999 -3.02043,-11.3938599999999 -0.7698,-5.60672 -2.60475,-24.5055000000001 -0.71772,-29.1874300000003 2.41807,-5.99946 12.21512,-12.5126399999998 18.5412,-14.3544699999997 6.94164,-2.0210500000001 15.29472,-0.9877400000003 20.21587,-1.3158200000003 5.38294,-0.3588699999998 13.13316,-1.0820199999997 21.23266,-1.9139399999998 9.14987,-0.9398 22.12981,-0.4784800000001 28.82857,0.23925 3.40591,0.36492 15.84867,3.3658699999996 23.20639,3.82786 6.69863,0.42061 14.29466,1.55507 18.48138,3.11013 4.18672,1.55507 13.14602,6.4478299999996 14.4142900000001,11.6032 0.97797,3.9753099999998 1.89384,26.91296 1.55507,31.10136 -0.65792,8.1342 -2.45802,16.4321200000001 -4.66521,20.21588 -2.51203,4.3063399999996 -3.34838,9.6797199999996 -8.01458,10.28737 -7.1776300000001,0.9346899999998 -10.7359500000002,-5.65207 -12.56017,-9.15098 -1.75751,-3.37095 -6.30619,-14.1293900000002 -6.88118,-19.6002600000003 -0.7003,-6.6631299999998 -2.62865,-16.7045899999998 -5.20049,-21.0109299999998"
       id="path1"
       sodipodi:nodetypes="czssssssssssssssssssssc"
       inkscape:label="top outline"
       sodipodi:insensitive="true" /><path
       style="display:inline;fill:none;stroke:#000000;stroke-width:2;stroke-linecap:round;stroke-linejoin:round;stroke-dasharray:none;stroke-opacity:1"
       d="m 200.09536,612.0088799999997 c 0,0 -6.65053,5.8388600000001 -9.27265,9.9412100000001 -2.04992,3.2071399999999 -10.13218,15.63558 -11.4612,21.2307099999999 -1.85251,7.7990299999999 -2.84763,27.95578 -2.66441,32.22672 0.1799,4.1934799999999 3.31609,8.15184 5.34996,9.09284 2.77644,1.2845399999999 6.76677,1.1841699999999 8.98712,0.1691600000001 1.82368,-0.8336800000001 2.21728,-1.1578199999999 2.79129,-2.66441 C 194.33326,680.6723399999999 194.04573,678.26678 194.54443,677.77588 c 0.45704,-0.44989 7.95119,-0.33861 8.28929,-0.0423 0.6351,0.5566 0.53768,5.2232600000001 1.43793,7.0205200000003 0.73774,1.4728299999999 2.62213,2.2837799999998 4.3984,2.03003 C 210.4463300000001,686.5303800000002 212.12787,685.41027 212.81469,683.69679 213.58345,681.77889 212.96977,678.29717 214.01427,677.6562500000001 c 1.38258,-0.8483800000002 31.6712400000001,-0.6907700000002 33.3109100000001,-0.0495 1.1662399999999,0.4560799999998 3.76057,1.52545 4.73674,3.8908799999998 0.47968,1.1623500000002 0.41298,3.7176400000002 1.1841799999999,5.6248800000002 0.72985,1.8049999999997 2.95314,2.6467699999997 4.2732000000001,2.84853 2.31076,0.3532 6.9289999999999,0.4104499999997 8.7023899999999,-0.4331900000001 1.49816,-0.7127099999999 2.9938200000001,-2.0907599999999 3.3889500000001,-3.8754899999999 0.38035,-1.71794 -0.3882,-6.8142200000002 1.4383799999999,-7.7595700000003 1.9064200000001,-0.98667 32.31942,-0.98216 33.7090600000001,-0.2114599999998 1.34691,0.74701 1.92808,6.6207799999997 3.3411,8.58533 1.18088,1.64179 5.6256999999998,1.9930799999998 8.33157,1.5648099999997 C 319.37006,687.3762600000001 321.94989,686.12863 322.54198,684.6061099999999 c 0.59209,-1.5225200000001 0.32768,-18.5329499999999 1.3745,-22.2245799999998 1.03136,-3.63716 4.20324,-12.6826 4.65214,-14.5062500000002 0.93767,-4.4893099999998 1.51385,-8.9654299999997 1.58421,-13.64684"
       id="path2"
       sodipodi:nodetypes="csssssssssssssssssssssssssc"
       inkscape:label="bottom outline"
       sodipodi:insensitive="true" /><path
       style="display:inline;fill:none;stroke:#000000;stroke-width:2;stroke-linecap:round;stroke-linejoin:round;stroke-dasharray:none;stroke-opacity:1"
       d="m 190.82271,621.95009 c -3.5811,-1.1308700000002 -12.88684,-3.93394 -17.63587,-10.3193100000002 -3.58503,-4.82029 -4.90764,-13.78941 -7.82407,-13.7872799999999 -2.414,0.002 -4.6358,11.2761999999999 -4.27152,16.0710600000001 0.32469,4.2736799999999 4.14464,11.8841299999998 4.14464,11.8841299999998 0,0 -4.37886,-0.6724499999998 -6.42842,0.29606 -1.57335,0.7434800000001 -0.34527,5.5024700000002 0.93043,7.27427 3.8063,5.2865400000002 9.33167,8.3072100000003 12.22246,9.0505500000003 2.9604600000001,0.76126 7.40115,0.76125 7.40115,0.76125"
       id="path3"
       sodipodi:nodetypes="cssscsssc"
       inkscape:label="tail outer outline"
       sodipodi:insensitive="true" /></g><g
     inkscape:groupmode="layer"
     id="layer5"
     inkscape:label="Face"
     transform="translate(-148.61128,-552.31175)"
     style="display:inline"><path
       style="display:inline;fill:none;stroke:#000000;stroke-width:2.5;stroke-linecap:round;stroke-linejoin:round;stroke-dasharray:none;stroke-opacity:1"
       d="m 262.33894,608.83949 c -1.03617,1.75513 -2.02544,3.64682 -2.11462,5.4134 -0.0951,1.8843 1.00998,4.59355 4.44069,4.69445 3.59485,0.10573 5.09622,-0.76126 6.09009,-3.12963 0.8359,-1.99193 1.0996,-3.93383 1.0996,-3.93383 0,0 0.85262,2.4226 1.67054,3.78581 1.71284,2.85473 5.88671,3.84212 7.84522,3.67943 2.03019,-0.16865 4.20808,-1.75448 4.6733,-4.58872 0.46521,-2.83423 0.63438,-5.54028 0.10572,-7.65489"
       id="path4"
       sodipodi:nodetypes="cssscsssc"
       inkscape:label="mouth w"
       sodipodi:insensitive="true" /><path
       style="display:inline;fill:none;stroke:#000000;stroke-width:2.5;stroke-linecap:round;stroke-linejoin:round;stroke-dasharray:none;stroke-opacity:1"
       d="m 291.16988,612.28994 c 0.91879,-0.97393 3.34645,-2.81604 4.04316,-3.629 9.1e-4,-0.73043 -0.0458,-2.21556 0.0756,-3.51071 1.14479,0.55254 4.99357,4.65072 5.40466,5.46293 -0.4136,0.8968 -4.29078,5.62364 -5.07044,6.47274 -0.58527,-0.40692 -4.03246,-3.98127 -4.45298,-4.79596 z"
       id="path5"
       sodipodi:nodetypes="cccccc"
       inkscape:label="right eye star"
       sodipodi:insensitive="true" /><path
       style="display:none;fill:none;fill-opacity:1;fill-rule:nonzero;stroke:#000000;stroke-width:2.5;stroke-linecap:round;stroke-linejoin:round;stroke-dasharray:none;stroke-opacity:1"
       d="m 291.75344,618.11107 c -0.22097,-3.0052 0.0256,-7.90343 2.25391,-8.48528 2.14545,-0.56021 5.03813,5.61266 5.70105,8.57367"
       id="path27"
       inkscape:label="right eye ^"
       sodipodi:nodetypes="csc"
       sodipodi:insensitive="true" /><path
       style="display:none;fill:none;fill-opacity:1;fill-rule:nonzero;stroke:#000000;stroke-width:2.5;stroke-linecap:round;stroke-linejoin:round;stroke-dasharray:none;stroke-opacity:1"
       d="m 300.50389,607.94641 -8.75044,7.24784 9.14818,5.74525"
       id="path29"
       sodipodi:nodetypes="ccc"
       inkscape:label="right eye &lt;"
       sodipodi:insensitive="true" /><path
       style="display:none;fill:#000000;fill-opacity:1;fill-rule:nonzero;stroke:none;stroke-width:0.25;stroke-linecap:round;stroke-linejoin:round;stroke-dasharray:none;stroke-opacity:1"
       d="m 293.5252,614.66438 c -0.20434,-5.01219 2.34515,-7.44142 4.9993,-7.36931 3.12523,0.0849 6.64262,5.03973 6.75688,8.19522 0.14387,3.97302 -1.90804,6.24991 -5.78637,6.10369 -3.93485,-0.14834 -5.83931,-3.72842 -5.96981,-6.9296 z"
       id="path31"
       sodipodi:nodetypes="sssss"
       inkscape:label="right eye o"
       sodipodi:insensitive="true" /><path
       style="display:inline;fill:none;stroke:#000000;stroke-width:2.5;stroke-linecap:round;stroke-linejoin:round;stroke-dasharray:none;stroke-opacity:1"
       d="m 253.1455900000002,611.3422199999996 c -1.50396,1.7292700000003 -3.1465100000001,3.9622199999999 -4.3945600000002,6.4981700000002 -1.24605,-1.0466799999998 -4.40271,-3.93912 -5.7417899999999,-6.3997099999998 1.2391999999999,-1.2560100000003 3.51884,-2.8708899999999 5.0539699999999,-4.8147200000002 -0.1028087131139,-0.7396610600889 -0.021960645153,-2.1783298751569 -0.089698643859,-3.2895480907407 0.985870138202,1.901059286134 3.766494373089,6.1615439430991 5.1720786438592,8.0058080907405 z"
       id="path7-7"
       sodipodi:nodetypes="cccccc"
       inkscape:label="left eye star new"
       sodipodi:insensitive="true" /><path
       style="display:none;fill:none;fill-opacity:1;fill-rule:nonzero;stroke:#000000;stroke-width:2.5;stroke-linecap:round;stroke-linejoin:round;stroke-dasharray:none;stroke-opacity:1"
       d="m 243.67018,616.47588 c 0.26518,-4.11005 2.98823,-8.14301 4.90556,-8.04334 2.27205,0.11811 3.88908,6.31977 4.33103,8.92723"
       id="path26"
       inkscape:label="left eye ^"
       sodipodi:nodetypes="csc"
       sodipodi:insensitive="true" /><path
       style="display:none;fill:none;fill-opacity:1;fill-rule:nonzero;stroke:#000000;stroke-width:2.5;stroke-linecap:round;stroke-linejoin:round;stroke-dasharray:none;stroke-opacity:1"
       d="m 246.18925,606.35542 5.30331,8.92722 -6.8943,4.41942"
       id="path28"
       sodipodi:nodetypes="ccc"
       inkscape:label="left eye &gt;"
       sodipodi:insensitive="true" /><path
       style="display:none;fill:#000000;fill-opacity:1;fill-rule:nonzero;stroke:none;stroke-width:0.25;stroke-linecap:round;stroke-linejoin:round;stroke-dasharray:none;stroke-opacity:1"
       d="m 253.12283,611.9395 c 0.1856,3.24148 -2.38951,7.37053 -5.34304,7.31794 -3.79821,-0.0676 -5.10574,-4.09053 -5.20419,-7.02956 -0.0963,-2.8736 0.38609,-6.98506 3.84443,-7.36748 3.08004,-0.34059 6.50051,3.54595 6.7028,7.0791 z"
       id="path30"
       sodipodi:nodetypes="sssss"
       inkscape:label="left eye o"
       sodipodi:insensitive="true" /></g></svg>
